<svg xmlns="http://www.w3.org/2000/svg" xmlns:xlink="http://www.w3.org/1999/xlink" width="500" zoomAndPan="magnify" viewBox="0 0 375 374.999991" height="500" preserveAspectRatio="xMidYMid meet" version="1.2"><defs><clipPath id="7b3c855f86"><path d="M 36.121094 35.742188 L 285 35.742188 L 285 339 L 36.121094 339 Z M 36.121094 35.742188 "/></clipPath><clipPath id="d82b640506"><path d="M 139 66 L 338.402344 66 L 338.402344 309 L 139 309 Z M 139 66 "/></clipPath></defs><g id="b456268194"><g clip-rule="nonzero" clip-path="url(#7b3c855f86)"><path style=" stroke:none;fill-rule:nonzero;fill:#5271ff;fill-opacity:1;" d="M 218.742188 320.902344 C 144.929688 320.902344 85.097656 261.066406 85.097656 187.253906 C 85.097656 113.441406 144.929688 53.609375 218.742188 53.609375 C 242.695312 53.609375 265.15625 59.9375 284.59375 70.976562 C 258.3125 49.019531 224.484375 35.789062 187.558594 35.789062 C 103.90625 35.789062 36.09375 103.605469 36.09375 187.253906 C 36.09375 270.90625 103.90625 338.71875 187.558594 338.71875 C 224.484375 338.71875 258.308594 325.492188 284.59375 303.535156 C 265.15625 314.570312 242.695312 320.902344 218.742188 320.902344 "/></g><g clip-rule="nonzero" clip-path="url(#d82b640506)"><path style=" stroke:none;fill-rule:nonzero;fill:#ffffff;fill-opacity:1;" d="M 192.480469 293.984375 C 251.425781 293.984375 299.210938 246.199219 299.210938 187.253906 C 299.210938 128.3125 251.425781 80.523438 192.480469 80.523438 C 173.355469 80.523438 155.417969 85.585938 139.894531 94.394531 C 160.882812 76.859375 187.894531 66.296875 217.386719 66.296875 C 284.191406 66.296875 338.34375 120.449219 338.34375 187.253906 C 338.34375 254.058594 284.191406 308.210938 217.386719 308.210938 C 187.894531 308.210938 160.882812 297.648438 139.894531 280.117188 C 155.417969 288.925781 173.355469 293.984375 192.480469 293.984375 "/></g><g style="fill:#ffffff;fill-opacity:1;"><g transform="translate(4.37971, 201.297018)"><path style="stroke:none" d="M 13.625 -33.28125 L 13.625 -18.546875 L 20.3125 -18.546875 C 21.5625 -18.578125 22.59375 -18.992188 23.40625 -19.796875 C 24.21875 -20.609375 24.625 -21.640625 24.625 -22.890625 L 24.625 -23.359375 L 25.125 -23.359375 L 25.125 -11.65625 L 24.625 -11.65625 L 24.625 -12.0625 C 24.625 -13.3125 24.222656 -14.335938 23.421875 -15.140625 C 22.628906 -15.953125 21.628906 -16.375 20.421875 -16.40625 L 13.625 -16.40625 L 13.625 -3.703125 C 13.625 -2.816406 13.941406 -2.0625 14.578125 -1.4375 C 15.222656 -0.8125 15.988281 -0.5 16.875 -0.5 L 17.46875 -0.5 L 17.53125 0 L 2.125 0 L 2.125 -0.5 L 2.78125 -0.5 C 3.664062 -0.5 4.421875 -0.8125 5.046875 -1.4375 C 5.671875 -2.0625 6 -2.816406 6.03125 -3.703125 L 6.03125 -31.90625 C 6.03125 -33.09375 5.472656 -33.972656 4.359375 -34.546875 C 3.878906 -34.816406 3.351562 -34.953125 2.78125 -34.953125 L 2.125 -34.953125 L 2.125 -35.453125 L 21.53125 -35.453125 C 22.570312 -35.453125 23.71875 -35.550781 24.96875 -35.75 C 26.21875 -35.957031 27.097656 -36.164062 27.609375 -36.375 L 27.609375 -27.8125 L 27.09375 -27.8125 L 27.09375 -28.3125 C 27.09375 -29.800781 26.660156 -30.992188 25.796875 -31.890625 C 24.941406 -32.785156 23.769531 -33.25 22.28125 -33.28125 Z M 13.625 -33.28125 "/></g></g><g style="fill:#ffffff;fill-opacity:1;"><g transform="translate(34.511308, 201.297018)"><path style="stroke:none" d="M 2.78125 -0.5 C 3.664062 -0.5 4.421875 -0.8125 5.046875 -1.4375 C 5.671875 -2.0625 6 -2.816406 6.03125 -3.703125 L 6.03125 -31.8125 C 6 -32.6875 5.671875 -33.425781 5.046875 -34.03125 C 4.421875 -34.644531 3.664062 -34.953125 2.78125 -34.953125 L 2.125 -34.953125 L 2.125 -35.453125 L 17.53125 -35.453125 L 17.46875 -34.953125 L 16.875 -34.953125 C 15.988281 -34.953125 15.222656 -34.644531 14.578125 -34.03125 C 13.941406 -33.425781 13.625 -32.6875 13.625 -31.8125 L 13.625 -3.703125 C 13.625 -2.816406 13.941406 -2.0625 14.578125 -1.4375 C 15.222656 -0.8125 15.988281 -0.5 16.875 -0.5 L 17.46875 -0.5 L 17.53125 0 L 2.125 0 L 2.125 -0.5 Z M 2.78125 -0.5 "/></g></g><g style="fill:#ffffff;fill-opacity:1;"><g transform="translate(54.058869, 201.297018)"><path style="stroke:none" d="M 27.5 -35.453125 L 38.34375 -35.453125 L 38.34375 -34.953125 L 37.890625 -34.953125 C 37.109375 -34.953125 36.328125 -34.710938 35.546875 -34.234375 C 34.773438 -33.765625 34.132812 -33.054688 33.625 -32.109375 L 21.625 -5.625 C 20.070312 -2.28125 19.242188 -0.0664062 19.140625 1.015625 L 18.6875 1.015625 L 3.34375 -32.0625 C 2.832031 -33.007812 2.1875 -33.726562 1.40625 -34.21875 C 0.632812 -34.707031 -0.15625 -34.953125 -0.96875 -34.953125 L -1.375 -34.953125 L -1.375 -35.453125 L 14.734375 -35.453125 L 14.734375 -34.953125 L 14.328125 -34.953125 C 13.585938 -34.953125 13.039062 -34.722656 12.6875 -34.265625 C 12.332031 -33.804688 12.15625 -33.375 12.15625 -32.96875 C 12.15625 -32.570312 12.222656 -32.171875 12.359375 -31.765625 L 20.96875 -10.84375 L 29.890625 -31.765625 C 30.054688 -32.203125 30.140625 -32.613281 30.140625 -33 C 30.140625 -33.382812 29.960938 -33.804688 29.609375 -34.265625 C 29.253906 -34.722656 28.703125 -34.953125 27.953125 -34.953125 L 27.5 -34.953125 Z M 27.5 -35.453125 "/></g></g><g style="fill:#ffffff;fill-opacity:1;"><g transform="translate(90.875124, 201.297018)"><path style="stroke:none" d="M 2.78125 -0.5 C 3.664062 -0.5 4.421875 -0.8125 5.046875 -1.4375 C 5.671875 -2.0625 6 -2.816406 6.03125 -3.703125 L 6.03125 -31.90625 C 5.957031 -32.789062 5.703125 -33.4375 5.265625 -33.84375 C 4.453125 -34.582031 3.625 -34.953125 2.78125 -34.953125 L 2.125 -34.953125 L 2.125 -35.453125 L 21.53125 -35.453125 C 23.1875 -35.453125 24.550781 -35.578125 25.625 -35.828125 C 26.707031 -36.085938 27.367188 -36.269531 27.609375 -36.375 L 27.609375 -27.5 L 27.09375 -27.5625 L 27.09375 -28.109375 C 27.09375 -30.203125 26.316406 -31.691406 24.765625 -32.578125 C 24.023438 -33.015625 23.148438 -33.25 22.140625 -33.28125 L 13.625 -33.28125 L 13.625 -18.546875 L 20.3125 -18.546875 C 21.5625 -18.578125 22.59375 -19.003906 23.40625 -19.828125 C 24.21875 -20.660156 24.625 -21.679688 24.625 -22.890625 L 24.625 -23.359375 L 25.125 -23.359375 L 25.125 -11.65625 L 24.625 -11.65625 L 24.625 -12.0625 C 24.625 -13.3125 24.222656 -14.335938 23.421875 -15.140625 C 22.628906 -15.953125 21.628906 -16.375 20.421875 -16.40625 L 13.625 -16.40625 L 13.625 -2.171875 L 20.265625 -2.171875 C 22.722656 -2.171875 24.785156 -2.878906 26.453125 -4.296875 C 28.128906 -5.722656 29.375 -7.734375 30.1875 -10.328125 L 30.703125 -10.328125 L 28.375 0 L 2.125 0 L 2.125 -0.5 Z M 2.78125 -0.5 "/></g></g><g style="fill:#ffffff;fill-opacity:1;"><g transform="translate(122.82982, 201.297018)"><path style="stroke:none" d="M 2.53125 -4.71875 C 2.53125 -7.144531 3.054688 -9.21875 4.109375 -10.9375 L 4.5625 -10.9375 C 4.53125 -10.664062 4.515625 -10.394531 4.515625 -10.125 C 4.515625 -7.800781 5.347656 -5.769531 7.015625 -4.03125 C 8.679688 -2.289062 10.96875 -1.421875 13.875 -1.421875 C 16.144531 -1.421875 17.910156 -1.957031 19.171875 -3.03125 C 20.441406 -4.113281 21.078125 -5.484375 21.078125 -7.140625 C 21.078125 -8.117188 20.765625 -8.992188 20.140625 -9.765625 C 19.515625 -10.546875 18.472656 -11.410156 17.015625 -12.359375 L 8.203125 -18.1875 C 4.929688 -20.382812 3.296875 -23.085938 3.296875 -26.296875 C 3.296875 -26.628906 3.328125 -26.960938 3.390625 -27.296875 C 3.597656 -29.972656 4.640625 -32.117188 6.515625 -33.734375 C 8.390625 -35.359375 10.894531 -36.171875 14.03125 -36.171875 C 15.882812 -36.171875 18.179688 -36 20.921875 -35.65625 L 24.109375 -35.65625 L 23.453125 -28.21875 L 22.953125 -28.21875 C 22.953125 -29.96875 22.300781 -31.375 21 -32.4375 C 19.695312 -33.507812 17.96875 -34.046875 15.8125 -34.046875 C 13.175781 -34.046875 11.265625 -33.234375 10.078125 -31.609375 C 9.472656 -30.828125 9.171875 -30.046875 9.171875 -29.265625 C 9.171875 -28.492188 9.320312 -27.835938 9.625 -27.296875 C 10.09375 -26.421875 11.125 -25.476562 12.71875 -24.46875 L 22.390625 -18.1875 C 25.429688 -16.195312 26.953125 -13.597656 26.953125 -10.390625 C 26.953125 -6.804688 25.726562 -4.0625 23.28125 -2.15625 C 20.832031 -0.25 17.582031 0.703125 13.53125 0.703125 C 11.226562 0.703125 9.101562 0.425781 7.15625 -0.125 C 5.21875 -0.6875 3.796875 -1.4375 2.890625 -2.375 C 2.648438 -3.019531 2.53125 -3.800781 2.53125 -4.71875 Z M 2.53125 -4.71875 "/></g></g><g style="fill:#5271ff;fill-opacity:1;"><g transform="translate(152.109809, 201.297018)"><path style="stroke:none" d="M 31.765625 -25.328125 C 31.765625 -23.773438 31.457031 -22.304688 30.84375 -20.921875 C 29.695312 -18.253906 27.570312 -16.429688 24.46875 -15.453125 C 23.550781 -15.148438 22.707031 -15 21.9375 -15 C 19.539062 -15 17.394531 -15.625 15.5 -16.875 L 15.5 -17.375 C 18.03125 -17.3125 20.070312 -18.140625 21.625 -19.859375 C 22.976562 -21.347656 23.65625 -23.289062 23.65625 -25.6875 C 23.65625 -28.113281 23.070312 -29.992188 21.90625 -31.328125 C 20.738281 -32.660156 19.160156 -33.328125 17.171875 -33.328125 L 13.78125 -33.328125 L 13.78125 -3.703125 C 13.78125 -2.816406 14.097656 -2.0625 14.734375 -1.4375 C 15.378906 -0.8125 16.140625 -0.5 17.015625 -0.5 L 17.671875 -0.5 L 17.671875 0 L 2.28125 0 L 2.28125 -0.5 L 2.9375 -0.5 C 3.8125 -0.5 4.5625 -0.8125 5.1875 -1.4375 C 5.8125 -2.0625 6.144531 -2.816406 6.1875 -3.703125 L 6.1875 -32.015625 C 6.1875 -32.859375 5.863281 -33.554688 5.21875 -34.109375 C 4.570312 -34.671875 3.8125 -34.953125 2.9375 -34.953125 L 2.28125 -34.953125 L 2.28125 -35.453125 L 19.203125 -35.453125 C 23.316406 -35.453125 26.421875 -34.578125 28.515625 -32.828125 C 30.679688 -30.972656 31.765625 -28.472656 31.765625 -25.328125 Z M 31.765625 -25.328125 "/></g></g><g style="fill:#5271ff;fill-opacity:1;"><g transform="translate(185.279889, 201.297018)"><path style="stroke:none" d="M 2.78125 -0.5 C 3.664062 -0.5 4.421875 -0.8125 5.046875 -1.4375 C 5.671875 -2.0625 6 -2.816406 6.03125 -3.703125 L 6.03125 -31.8125 C 6 -32.6875 5.671875 -33.425781 5.046875 -34.03125 C 4.421875 -34.644531 3.664062 -34.953125 2.78125 -34.953125 L 2.125 -34.953125 L 2.125 -35.453125 L 17.53125 -35.453125 L 17.46875 -34.953125 L 16.875 -34.953125 C 15.988281 -34.953125 15.222656 -34.644531 14.578125 -34.03125 C 13.941406 -33.425781 13.625 -32.6875 13.625 -31.8125 L 13.625 -3.703125 C 13.625 -2.816406 13.941406 -2.0625 14.578125 -1.4375 C 15.222656 -0.8125 15.988281 -0.5 16.875 -0.5 L 17.46875 -0.5 L 17.53125 0 L 2.125 0 L 2.125 -0.5 Z M 2.78125 -0.5 "/></g></g><g style="fill:#5271ff;fill-opacity:1;"><g transform="translate(204.82745, 201.297018)"><path style="stroke:none" d="M 2.78125 -0.5 C 3.664062 -0.5 4.421875 -0.8125 5.046875 -1.4375 C 5.671875 -2.0625 6 -2.816406 6.03125 -3.703125 L 6.03125 -31.765625 C 6 -32.640625 5.671875 -33.390625 5.046875 -34.015625 C 4.421875 -34.640625 3.664062 -34.953125 2.78125 -34.953125 L 2.125 -34.953125 L 2.125 -35.453125 L 17.53125 -35.453125 L 17.46875 -34.953125 L 16.875 -34.953125 C 15.988281 -34.953125 15.222656 -34.640625 14.578125 -34.015625 C 13.941406 -33.390625 13.625 -32.640625 13.625 -31.765625 L 13.625 -2.171875 L 20.265625 -2.171875 C 22.722656 -2.171875 24.785156 -2.878906 26.453125 -4.296875 C 28.128906 -5.722656 29.375 -7.734375 30.1875 -10.328125 L 30.703125 -10.328125 L 28.375 0 L 2.125 0 L 2.125 -0.5 Z M 2.78125 -0.5 "/></g></g><g style="fill:#5271ff;fill-opacity:1;"><g transform="translate(236.022529, 201.297018)"><path style="stroke:none" d="M 2.78125 -0.5 C 3.664062 -0.5 4.421875 -0.8125 5.046875 -1.4375 C 5.671875 -2.0625 6 -2.816406 6.03125 -3.703125 L 6.03125 -31.765625 C 6 -32.640625 5.671875 -33.390625 5.046875 -34.015625 C 4.421875 -34.640625 3.664062 -34.953125 2.78125 -34.953125 L 2.125 -34.953125 L 2.125 -35.453125 L 17.53125 -35.453125 L 17.46875 -34.953125 L 16.875 -34.953125 C 15.988281 -34.953125 15.222656 -34.640625 14.578125 -34.015625 C 13.941406 -33.390625 13.625 -32.640625 13.625 -31.765625 L 13.625 -2.171875 L 20.265625 -2.171875 C 22.722656 -2.171875 24.785156 -2.878906 26.453125 -4.296875 C 28.128906 -5.722656 29.375 -7.734375 30.1875 -10.328125 L 30.703125 -10.328125 L 28.375 0 L 2.125 0 L 2.125 -0.5 Z M 2.78125 -0.5 "/></g></g><g style="fill:#5271ff;fill-opacity:1;"><g transform="translate(267.217609, 201.297018)"><path style="stroke:none" d="M 37.375 -0.5 L 37.84375 -0.5 L 37.84375 0 L 21.671875 0 L 21.671875 -0.5 L 22.140625 -0.5 C 22.878906 -0.5 23.425781 -0.726562 23.78125 -1.1875 C 24.132812 -1.644531 24.3125 -2.078125 24.3125 -2.484375 C 24.3125 -2.890625 24.226562 -3.296875 24.0625 -3.703125 L 21.578125 -9.921875 L 9.71875 -9.921875 L 7.09375 -3.703125 C 6.914062 -3.265625 6.828125 -2.847656 6.828125 -2.453125 C 6.828125 -2.066406 7.015625 -1.644531 7.390625 -1.1875 C 7.765625 -0.726562 8.320312 -0.5 9.0625 -0.5 L 9.46875 -0.5 L 9.46875 0 L -1.375 0 L -1.375 -0.5 L -0.921875 -0.5 C -0.140625 -0.5 0.632812 -0.734375 1.40625 -1.203125 C 2.1875 -1.679688 2.832031 -2.394531 3.34375 -3.34375 L 15.046875 -29.84375 C 16.628906 -33.175781 17.472656 -35.382812 17.578125 -36.46875 L 18.03125 -36.46875 L 33.078125 -3.4375 C 33.578125 -2.457031 34.21875 -1.722656 35 -1.234375 C 35.78125 -0.742188 36.570312 -0.5 37.375 -0.5 Z M 10.578125 -12.0625 L 20.71875 -12.0625 L 15.796875 -24.515625 Z M 10.578125 -12.0625 "/></g></g><g style="fill:#5271ff;fill-opacity:1;"><g transform="translate(303.476812, 201.297018)"><path style="stroke:none" d="M 16.109375 -33.234375 L 13.9375 -33.234375 C 13.863281 -33.234375 13.8125 -33.234375 13.78125 -33.234375 L 13.78125 -3.703125 C 13.8125 -2.816406 14.140625 -2.0625 14.765625 -1.4375 C 15.390625 -0.8125 16.140625 -0.5 17.015625 -0.5 L 17.671875 -0.5 L 17.671875 0 L 2.28125 0 L 2.28125 -0.5 L 2.9375 -0.5 C 4.15625 -0.5 5.082031 -1.023438 5.71875 -2.078125 C 5.988281 -2.546875 6.144531 -3.066406 6.1875 -3.640625 L 6.1875 -31.765625 C 6.144531 -32.640625 5.8125 -33.390625 5.1875 -34.015625 C 4.5625 -34.640625 3.8125 -34.953125 2.9375 -34.953125 L 2.28125 -34.953125 L 2.28125 -35.453125 L 19.65625 -35.453125 C 22.925781 -35.453125 25.695312 -34.742188 27.96875 -33.328125 C 29.113281 -32.617188 30.019531 -31.628906 30.6875 -30.359375 C 31.363281 -29.097656 31.703125 -27.445312 31.703125 -25.40625 C 31.703125 -23.363281 30.992188 -21.394531 29.578125 -19.5 C 28.160156 -17.613281 26.101562 -16.535156 23.40625 -16.265625 C 25.363281 -15.617188 27.082031 -14.128906 28.5625 -11.796875 C 32.21875 -5.960938 34.921875 -2.488281 36.671875 -1.375 C 37.554688 -0.832031 38.65625 -0.539062 39.96875 -0.5 L 39.96875 0 L 35 0 C 32.0625 0 29.617188 -0.382812 27.671875 -1.15625 C 25.734375 -1.9375 24.207031 -3.304688 23.09375 -5.265625 C 22.457031 -6.378906 21.054688 -9.269531 18.890625 -13.9375 C 17.941406 -15.988281 16.796875 -17.117188 15.453125 -17.328125 L 15.453125 -17.828125 L 17.015625 -17.828125 C 18.535156 -17.828125 19.878906 -18.28125 21.046875 -19.1875 C 22.210938 -20.101562 23 -21.59375 23.40625 -23.65625 C 23.539062 -24.363281 23.609375 -24.921875 23.609375 -25.328125 C 23.609375 -28.097656 23.050781 -30.097656 21.9375 -31.328125 C 20.820312 -32.566406 19.382812 -33.203125 17.625 -33.234375 C 17.289062 -33.234375 16.785156 -33.234375 16.109375 -33.234375 Z M 16.109375 -33.234375 "/></g></g><g style="fill:#5271ff;fill-opacity:1;"><g transform="translate(341.305908, 201.297018)"><path style="stroke:none" d="M 2.53125 -4.71875 C 2.53125 -7.144531 3.054688 -9.21875 4.109375 -10.9375 L 4.5625 -10.9375 C 4.53125 -10.664062 4.515625 -10.394531 4.515625 -10.125 C 4.515625 -7.800781 5.347656 -5.769531 7.015625 -4.03125 C 8.679688 -2.289062 10.96875 -1.421875 13.875 -1.421875 C 16.144531 -1.421875 17.910156 -1.957031 19.171875 -3.03125 C 20.441406 -4.113281 21.078125 -5.484375 21.078125 -7.140625 C 21.078125 -8.117188 20.765625 -8.992188 20.140625 -9.765625 C 19.515625 -10.546875 18.472656 -11.410156 17.015625 -12.359375 L 8.203125 -18.1875 C 4.929688 -20.382812 3.296875 -23.085938 3.296875 -26.296875 C 3.296875 -26.628906 3.328125 -26.960938 3.390625 -27.296875 C 3.597656 -29.972656 4.640625 -32.117188 6.515625 -33.734375 C 8.390625 -35.359375 10.894531 -36.171875 14.03125 -36.171875 C 15.882812 -36.171875 18.179688 -36 20.921875 -35.65625 L 24.109375 -35.65625 L 23.453125 -28.21875 L 22.953125 -28.21875 C 22.953125 -29.96875 22.300781 -31.375 21 -32.4375 C 19.695312 -33.507812 17.96875 -34.046875 15.8125 -34.046875 C 13.175781 -34.046875 11.265625 -33.234375 10.078125 -31.609375 C 9.472656 -30.828125 9.171875 -30.046875 9.171875 -29.265625 C 9.171875 -28.492188 9.320312 -27.835938 9.625 -27.296875 C 10.09375 -26.421875 11.125 -25.476562 12.71875 -24.46875 L 22.390625 -18.1875 C 25.429688 -16.195312 26.953125 -13.597656 26.953125 -10.390625 C 26.953125 -6.804688 25.726562 -4.0625 23.28125 -2.15625 C 20.832031 -0.25 17.582031 0.703125 13.53125 0.703125 C 11.226562 0.703125 9.101562 0.425781 7.15625 -0.125 C 5.21875 -0.6875 3.796875 -1.4375 2.890625 -2.375 C 2.648438 -3.019531 2.53125 -3.800781 2.53125 -4.71875 Z M 2.53125 -4.71875 "/></g></g><g style="fill:#ffffff;fill-opacity:1;"><g transform="translate(1.760094, 225.276514)"><path style="stroke:none" d="M 2.328125 -1.28125 L 6.125 -1.28125 L 6.125 0 L 0.8125 0 L 0.8125 -7.546875 L 2.328125 -7.546875 Z M 2.328125 -1.28125 "/></g></g><g style="fill:#ffffff;fill-opacity:1;"><g transform="translate(8.195315, 225.276514)"><path style="stroke:none" d="M 6.359375 -6.265625 L 2.28125 -6.265625 L 2.28125 -4.59375 L 6.078125 -4.59375 L 6.078125 -3.3125 L 2.28125 -3.3125 L 2.28125 -1.28125 L 6.5 -1.28125 L 6.5 0 L 0.765625 0 L 0.765625 -7.546875 L 6.359375 -7.546875 Z M 6.359375 -6.265625 "/></g></g><g style="fill:#ffffff;fill-opacity:1;"><g transform="translate(15.22035, 225.276514)"><path style="stroke:none" d="M 4.25 -7.671875 C 5.113281 -7.671875 5.820312 -7.488281 6.375 -7.125 C 6.925781 -6.757812 7.285156 -6.203125 7.453125 -5.453125 L 5.9375 -5.171875 C 5.820312 -5.566406 5.613281 -5.863281 5.3125 -6.0625 C 5.007812 -6.257812 4.65625 -6.359375 4.25 -6.359375 C 3.84375 -6.359375 3.484375 -6.28125 3.171875 -6.125 C 2.867188 -5.96875 2.625 -5.742188 2.4375 -5.453125 C 2.195312 -5.054688 2.078125 -4.523438 2.078125 -3.859375 C 2.078125 -3.066406 2.253906 -2.421875 2.609375 -1.921875 C 2.972656 -1.421875 3.515625 -1.171875 4.234375 -1.171875 C 4.546875 -1.171875 4.851562 -1.226562 5.15625 -1.34375 C 5.46875 -1.46875 5.753906 -1.628906 6.015625 -1.828125 L 6.015625 -2.765625 L 4.28125 -2.765625 L 4.28125 -4.046875 L 7.546875 -4.046875 L 7.546875 -1.046875 C 7.171875 -0.691406 6.6875 -0.40625 6.09375 -0.1875 C 5.5 0.0195312 4.910156 0.125 4.328125 0.125 C 3.484375 0.125 2.773438 -0.046875 2.203125 -0.390625 C 1.628906 -0.742188 1.203125 -1.21875 0.921875 -1.8125 C 0.640625 -2.40625 0.5 -3.066406 0.5 -3.796875 C 0.5 -4.492188 0.632812 -5.132812 0.90625 -5.71875 C 1.1875 -6.3125 1.609375 -6.785156 2.171875 -7.140625 C 2.734375 -7.492188 3.425781 -7.671875 4.25 -7.671875 Z M 4.25 -7.671875 "/></g></g><g style="fill:#ffffff;fill-opacity:1;"><g transform="translate(23.41446, 225.276514)"><path style="stroke:none" d="M 7.578125 0 L 5.90625 0 L 5.25 -1.703125 L 2.25 -1.703125 L 1.625 0 L 0 0 L 2.9375 -7.546875 L 4.546875 -7.546875 Z M 2.703125 -2.984375 L 4.765625 -2.984375 L 3.734375 -5.78125 Z M 2.703125 -2.984375 "/></g></g><g style="fill:#ffffff;fill-opacity:1;"><g transform="translate(30.576419, 225.276514)"><path style="stroke:none" d="M 4.015625 -7.671875 C 4.785156 -7.671875 5.4375 -7.484375 5.96875 -7.109375 C 6.5 -6.734375 6.851562 -6.179688 7.03125 -5.453125 L 5.53125 -5.09375 C 5.4375 -5.488281 5.25 -5.796875 4.96875 -6.015625 C 4.6875 -6.242188 4.34375 -6.359375 3.9375 -6.359375 C 3.34375 -6.359375 2.878906 -6.148438 2.546875 -5.734375 C 2.222656 -5.316406 2.0625 -4.679688 2.0625 -3.828125 C 2.0625 -3.035156 2.195312 -2.394531 2.46875 -1.90625 C 2.738281 -1.414062 3.222656 -1.171875 3.921875 -1.171875 C 4.359375 -1.171875 4.710938 -1.3125 4.984375 -1.59375 C 5.265625 -1.875 5.460938 -2.265625 5.578125 -2.765625 L 7.0625 -2.3125 C 6.851562 -1.488281 6.476562 -0.875 5.9375 -0.46875 C 5.394531 -0.0703125 4.722656 0.125 3.921875 0.125 C 3.242188 0.125 2.644531 -0.03125 2.125 -0.34375 C 1.601562 -0.664062 1.203125 -1.113281 0.921875 -1.6875 C 0.640625 -2.257812 0.5 -2.929688 0.5 -3.703125 C 0.5 -4.390625 0.617188 -5.035156 0.859375 -5.640625 C 1.097656 -6.242188 1.476562 -6.734375 2 -7.109375 C 2.53125 -7.484375 3.203125 -7.671875 4.015625 -7.671875 Z M 4.015625 -7.671875 "/></g></g><g style="fill:#ffffff;fill-opacity:1;"><g transform="translate(38.180729, 225.276514)"><path style="stroke:none" d="M 3.53125 -4.5625 L 5.28125 -7.546875 L 7.03125 -7.546875 L 4.265625 -3.15625 L 4.265625 0 L 2.75 0 L 2.75 -3.171875 L -0.015625 -7.546875 L 1.765625 -7.546875 Z M 3.53125 -4.5625 "/></g></g><g style="fill:#ffffff;fill-opacity:1;"><g transform="translate(45.205764, 225.276514)"><path style="stroke:none" d=""/></g></g><g style="fill:#ffffff;fill-opacity:1;"><g transform="translate(48.133743, 225.276514)"><path style="stroke:none" d="M 4.09375 -7.671875 C 4.882812 -7.671875 5.550781 -7.5 6.09375 -7.15625 C 6.644531 -6.820312 7.054688 -6.359375 7.328125 -5.765625 C 7.609375 -5.179688 7.75 -4.515625 7.75 -3.765625 C 7.75 -2.960938 7.601562 -2.269531 7.3125 -1.6875 C 7.019531 -1.101562 6.597656 -0.65625 6.046875 -0.34375 C 5.503906 -0.03125 4.863281 0.125 4.125 0.125 C 3.34375 0.125 2.675781 -0.0351562 2.125 -0.359375 C 1.570312 -0.679688 1.15625 -1.128906 0.875 -1.703125 C 0.59375 -2.285156 0.453125 -2.960938 0.453125 -3.734375 C 0.453125 -4.523438 0.59375 -5.21875 0.875 -5.8125 C 1.15625 -6.40625 1.566406 -6.863281 2.109375 -7.1875 C 2.648438 -7.507812 3.3125 -7.671875 4.09375 -7.671875 Z M 2.015625 -3.765625 C 2.015625 -3.179688 2.109375 -2.695312 2.296875 -2.3125 C 2.492188 -1.925781 2.75 -1.640625 3.0625 -1.453125 C 3.375 -1.265625 3.722656 -1.171875 4.109375 -1.171875 C 4.460938 -1.171875 4.789062 -1.25 5.09375 -1.40625 C 5.40625 -1.570312 5.664062 -1.847656 5.875 -2.234375 C 6.082031 -2.628906 6.1875 -3.148438 6.1875 -3.796875 C 6.1875 -4.546875 6.019531 -5.160156 5.6875 -5.640625 C 5.351562 -6.117188 4.820312 -6.359375 4.09375 -6.359375 C 3.375 -6.359375 2.847656 -6.113281 2.515625 -5.625 C 2.179688 -5.144531 2.015625 -4.523438 2.015625 -3.765625 Z M 2.015625 -3.765625 "/></g></g><g style="fill:#ffffff;fill-opacity:1;"><g transform="translate(56.327854, 225.276514)"><path style="stroke:none" d="M 5.953125 -6.265625 L 2.296875 -6.265625 L 2.296875 -4.46875 L 5.453125 -4.46875 L 5.453125 -3.203125 L 2.296875 -3.203125 L 2.296875 0 L 0.78125 0 L 0.78125 -7.546875 L 5.953125 -7.546875 Z M 5.953125 -6.265625 "/></g></g><g style="fill:#ffffff;fill-opacity:1;"><g transform="translate(62.763075, 225.276514)"><path style="stroke:none" d=""/></g></g><g style="fill:#ffffff;fill-opacity:1;"><g transform="translate(65.691054, 225.276514)"><path style="stroke:none" d="M 3.40625 -7.671875 C 4.238281 -7.671875 4.921875 -7.484375 5.453125 -7.109375 C 5.984375 -6.734375 6.257812 -6.15625 6.28125 -5.375 L 4.765625 -5.3125 C 4.710938 -5.664062 4.582031 -5.9375 4.375 -6.125 C 4.164062 -6.3125 3.832031 -6.40625 3.375 -6.40625 C 3.0625 -6.40625 2.769531 -6.347656 2.5 -6.234375 C 2.238281 -6.128906 2.109375 -5.941406 2.109375 -5.671875 C 2.109375 -5.429688 2.226562 -5.242188 2.46875 -5.109375 C 2.707031 -4.972656 3.128906 -4.835938 3.734375 -4.703125 C 4.304688 -4.566406 4.773438 -4.421875 5.140625 -4.265625 C 5.515625 -4.117188 5.832031 -3.878906 6.09375 -3.546875 C 6.363281 -3.210938 6.5 -2.757812 6.5 -2.1875 C 6.5 -1.90625 6.429688 -1.601562 6.296875 -1.28125 C 6.160156 -0.957031 5.941406 -0.675781 5.640625 -0.4375 C 5.421875 -0.257812 5.125 -0.117188 4.75 -0.015625 C 4.382812 0.078125 3.957031 0.125 3.46875 0.125 C 2.53125 0.125 1.804688 -0.0820312 1.296875 -0.5 C 0.796875 -0.925781 0.488281 -1.578125 0.375 -2.453125 L 1.859375 -2.59375 C 2.015625 -1.625 2.5625 -1.140625 3.5 -1.140625 C 3.988281 -1.140625 4.359375 -1.242188 4.609375 -1.453125 C 4.859375 -1.660156 4.984375 -1.90625 4.984375 -2.1875 C 4.984375 -2.394531 4.921875 -2.554688 4.796875 -2.671875 C 4.671875 -2.796875 4.476562 -2.898438 4.21875 -2.984375 C 3.957031 -3.078125 3.546875 -3.1875 2.984375 -3.3125 C 2.273438 -3.46875 1.707031 -3.726562 1.28125 -4.09375 C 0.863281 -4.457031 0.65625 -4.945312 0.65625 -5.5625 C 0.65625 -5.894531 0.738281 -6.21875 0.90625 -6.53125 C 1.070312 -6.851562 1.359375 -7.125 1.765625 -7.34375 C 2.179688 -7.5625 2.726562 -7.671875 3.40625 -7.671875 Z M 3.40625 -7.671875 "/></g></g><g style="fill:#ffffff;fill-opacity:1;"><g transform="translate(72.716089, 225.276514)"><path style="stroke:none" d="M 6.359375 -6.265625 L 2.28125 -6.265625 L 2.28125 -4.59375 L 6.078125 -4.59375 L 6.078125 -3.3125 L 2.28125 -3.3125 L 2.28125 -1.28125 L 6.5 -1.28125 L 6.5 0 L 0.765625 0 L 0.765625 -7.546875 L 6.359375 -7.546875 Z M 6.359375 -6.265625 "/></g></g><g style="fill:#ffffff;fill-opacity:1;"><g transform="translate(79.741124, 225.276514)"><path style="stroke:none" d="M 5.828125 -7.296875 C 6.140625 -7.160156 6.398438 -6.925781 6.609375 -6.59375 C 6.816406 -6.257812 6.921875 -5.867188 6.921875 -5.421875 C 6.921875 -4.859375 6.75 -4.382812 6.40625 -4 C 6.0625 -3.625 5.570312 -3.394531 4.9375 -3.3125 C 5.207031 -3.125 5.414062 -2.96875 5.5625 -2.84375 C 5.707031 -2.726562 5.863281 -2.554688 6.03125 -2.328125 C 6.207031 -2.109375 6.421875 -1.796875 6.671875 -1.390625 L 7.546875 0 L 5.71875 0 L 4.5 -1.828125 C 4.226562 -2.234375 4.015625 -2.519531 3.859375 -2.6875 C 3.710938 -2.863281 3.550781 -2.984375 3.375 -3.046875 C 3.207031 -3.117188 2.972656 -3.15625 2.671875 -3.15625 L 2.28125 -3.15625 L 2.28125 0 L 0.765625 0 L 0.765625 -7.546875 L 4.0625 -7.546875 C 4.425781 -7.546875 4.75 -7.53125 5.03125 -7.5 C 5.320312 -7.46875 5.585938 -7.398438 5.828125 -7.296875 Z M 4.75 -4.4375 C 4.925781 -4.488281 5.070312 -4.59375 5.1875 -4.75 C 5.300781 -4.90625 5.359375 -5.097656 5.359375 -5.328125 C 5.359375 -5.722656 5.1875 -6 4.84375 -6.15625 C 4.75 -6.195312 4.632812 -6.222656 4.5 -6.234375 C 4.375 -6.253906 4.148438 -6.265625 3.828125 -6.265625 L 2.28125 -6.265625 L 2.28125 -4.34375 L 3.625 -4.34375 C 4.164062 -4.34375 4.539062 -4.375 4.75 -4.4375 Z M 4.75 -4.4375 "/></g></g><g style="fill:#ffffff;fill-opacity:1;"><g transform="translate(87.071599, 225.276514)"><path style="stroke:none" d="M 3.5625 -1.953125 L 5.40625 -7.546875 L 7.015625 -7.546875 L 4.3125 0 L 2.6875 0 L 0 -7.546875 L 1.65625 -7.546875 Z M 3.5625 -1.953125 "/></g></g><g style="fill:#ffffff;fill-opacity:1;"><g transform="translate(94.096634, 225.276514)"><path style="stroke:none" d="M 2.234375 0 L 0.71875 0 L 0.71875 -7.546875 L 2.234375 -7.546875 Z M 2.234375 0 "/></g></g><g style="fill:#ffffff;fill-opacity:1;"><g transform="translate(97.024614, 225.276514)"><path style="stroke:none" d="M 4.015625 -7.671875 C 4.785156 -7.671875 5.4375 -7.484375 5.96875 -7.109375 C 6.5 -6.734375 6.851562 -6.179688 7.03125 -5.453125 L 5.53125 -5.09375 C 5.4375 -5.488281 5.25 -5.796875 4.96875 -6.015625 C 4.6875 -6.242188 4.34375 -6.359375 3.9375 -6.359375 C 3.34375 -6.359375 2.878906 -6.148438 2.546875 -5.734375 C 2.222656 -5.316406 2.0625 -4.679688 2.0625 -3.828125 C 2.0625 -3.035156 2.195312 -2.394531 2.46875 -1.90625 C 2.738281 -1.414062 3.222656 -1.171875 3.921875 -1.171875 C 4.359375 -1.171875 4.710938 -1.3125 4.984375 -1.59375 C 5.265625 -1.875 5.460938 -2.265625 5.578125 -2.765625 L 7.0625 -2.3125 C 6.851562 -1.488281 6.476562 -0.875 5.9375 -0.46875 C 5.394531 -0.0703125 4.722656 0.125 3.921875 0.125 C 3.242188 0.125 2.644531 -0.03125 2.125 -0.34375 C 1.601562 -0.664062 1.203125 -1.113281 0.921875 -1.6875 C 0.640625 -2.257812 0.5 -2.929688 0.5 -3.703125 C 0.5 -4.390625 0.617188 -5.035156 0.859375 -5.640625 C 1.097656 -6.242188 1.476562 -6.734375 2 -7.109375 C 2.53125 -7.484375 3.203125 -7.671875 4.015625 -7.671875 Z M 4.015625 -7.671875 "/></g></g><g style="fill:#ffffff;fill-opacity:1;"><g transform="translate(104.628923, 225.276514)"><path style="stroke:none" d="M 6.359375 -6.265625 L 2.28125 -6.265625 L 2.28125 -4.59375 L 6.078125 -4.59375 L 6.078125 -3.3125 L 2.28125 -3.3125 L 2.28125 -1.28125 L 6.5 -1.28125 L 6.5 0 L 0.765625 0 L 0.765625 -7.546875 L 6.359375 -7.546875 Z M 6.359375 -6.265625 "/></g></g><g style="fill:#ffffff;fill-opacity:1;"><g transform="translate(111.653958, 225.276514)"><path style="stroke:none" d="M 2.203125 0 L 0.765625 0 L 0.765625 -1.4375 L 2.203125 -1.4375 Z M 2.203125 0 "/></g></g><g style="fill:#ffffff;fill-opacity:1;"><g transform="translate(114.581938, 225.276514)"><path style="stroke:none" d=""/></g></g><g style="fill:#ffffff;fill-opacity:1;"><g transform="translate(117.509917, 225.276514)"><path style="stroke:none" d="M 5.234375 -7.359375 C 5.609375 -7.203125 5.921875 -6.945312 6.171875 -6.59375 C 6.421875 -6.238281 6.546875 -5.78125 6.546875 -5.21875 C 6.546875 -4.675781 6.421875 -4.222656 6.171875 -3.859375 C 5.929688 -3.492188 5.625 -3.234375 5.25 -3.078125 C 4.875 -2.921875 4.269531 -2.84375 3.4375 -2.84375 L 2.28125 -2.84375 L 2.28125 0 L 0.765625 0 L 0.765625 -7.546875 L 3.390625 -7.546875 C 3.878906 -7.546875 4.265625 -7.53125 4.546875 -7.5 C 4.835938 -7.476562 5.066406 -7.429688 5.234375 -7.359375 Z M 4.96875 -5.203125 C 4.96875 -5.648438 4.75 -5.96875 4.3125 -6.15625 C 4.144531 -6.226562 3.800781 -6.265625 3.28125 -6.265625 L 2.28125 -6.265625 L 2.28125 -4.125 L 3.28125 -4.125 C 3.800781 -4.125 4.210938 -4.191406 4.515625 -4.328125 C 4.816406 -4.472656 4.96875 -4.765625 4.96875 -5.203125 Z M 4.96875 -5.203125 "/></g></g><g style="fill:#ffffff;fill-opacity:1;"><g transform="translate(124.534952, 225.276514)"><path style="stroke:none" d="M 4.09375 -7.671875 C 4.882812 -7.671875 5.550781 -7.5 6.09375 -7.15625 C 6.644531 -6.820312 7.054688 -6.359375 7.328125 -5.765625 C 7.609375 -5.179688 7.75 -4.515625 7.75 -3.765625 C 7.75 -2.960938 7.601562 -2.269531 7.3125 -1.6875 C 7.019531 -1.101562 6.597656 -0.65625 6.046875 -0.34375 C 5.503906 -0.03125 4.863281 0.125 4.125 0.125 C 3.34375 0.125 2.675781 -0.0351562 2.125 -0.359375 C 1.570312 -0.679688 1.15625 -1.128906 0.875 -1.703125 C 0.59375 -2.285156 0.453125 -2.960938 0.453125 -3.734375 C 0.453125 -4.523438 0.59375 -5.21875 0.875 -5.8125 C 1.15625 -6.40625 1.566406 -6.863281 2.109375 -7.1875 C 2.648438 -7.507812 3.3125 -7.671875 4.09375 -7.671875 Z M 2.015625 -3.765625 C 2.015625 -3.179688 2.109375 -2.695312 2.296875 -2.3125 C 2.492188 -1.925781 2.75 -1.640625 3.0625 -1.453125 C 3.375 -1.265625 3.722656 -1.171875 4.109375 -1.171875 C 4.460938 -1.171875 4.789062 -1.25 5.09375 -1.40625 C 5.40625 -1.570312 5.664062 -1.847656 5.875 -2.234375 C 6.082031 -2.628906 6.1875 -3.148438 6.1875 -3.796875 C 6.1875 -4.546875 6.019531 -5.160156 5.6875 -5.640625 C 5.351562 -6.117188 4.820312 -6.359375 4.09375 -6.359375 C 3.375 -6.359375 2.847656 -6.113281 2.515625 -5.625 C 2.179688 -5.144531 2.015625 -4.523438 2.015625 -3.765625 Z M 2.015625 -3.765625 "/></g></g><g style="fill:#ffffff;fill-opacity:1;"><g transform="translate(132.729063, 225.276514)"><path style="stroke:none" d="M 2.734375 -2.359375 L 4.109375 -7.546875 L 5.921875 -7.546875 L 7.25 -2.28125 L 8.390625 -7.546875 L 9.9375 -7.546875 L 8.09375 0 L 6.484375 0 L 4.96875 -5.640625 L 3.484375 0 L 1.828125 0 L 0.03125 -7.546875 L 1.59375 -7.546875 Z M 2.734375 -2.359375 "/></g></g><g style="fill:#ffffff;fill-opacity:1;"><g transform="translate(142.671538, 225.276514)"><path style="stroke:none" d="M 6.359375 -6.265625 L 2.28125 -6.265625 L 2.28125 -4.59375 L 6.078125 -4.59375 L 6.078125 -3.3125 L 2.28125 -3.3125 L 2.28125 -1.28125 L 6.5 -1.28125 L 6.5 0 L 0.765625 0 L 0.765625 -7.546875 L 6.359375 -7.546875 Z M 6.359375 -6.265625 "/></g></g><g style="fill:#ffffff;fill-opacity:1;"><g transform="translate(149.696573, 225.276514)"><path style="stroke:none" d="M 5.828125 -7.296875 C 6.140625 -7.160156 6.398438 -6.925781 6.609375 -6.59375 C 6.816406 -6.257812 6.921875 -5.867188 6.921875 -5.421875 C 6.921875 -4.859375 6.75 -4.382812 6.40625 -4 C 6.0625 -3.625 5.570312 -3.394531 4.9375 -3.3125 C 5.207031 -3.125 5.414062 -2.96875 5.5625 -2.84375 C 5.707031 -2.726562 5.863281 -2.554688 6.03125 -2.328125 C 6.207031 -2.109375 6.421875 -1.796875 6.671875 -1.390625 L 7.546875 0 L 5.71875 0 L 4.5 -1.828125 C 4.226562 -2.234375 4.015625 -2.519531 3.859375 -2.6875 C 3.710938 -2.863281 3.550781 -2.984375 3.375 -3.046875 C 3.207031 -3.117188 2.972656 -3.15625 2.671875 -3.15625 L 2.28125 -3.15625 L 2.28125 0 L 0.765625 0 L 0.765625 -7.546875 L 4.0625 -7.546875 C 4.425781 -7.546875 4.75 -7.53125 5.03125 -7.5 C 5.320312 -7.46875 5.585938 -7.398438 5.828125 -7.296875 Z M 4.75 -4.4375 C 4.925781 -4.488281 5.070312 -4.59375 5.1875 -4.75 C 5.300781 -4.90625 5.359375 -5.097656 5.359375 -5.328125 C 5.359375 -5.722656 5.1875 -6 4.84375 -6.15625 C 4.75 -6.195312 4.632812 -6.222656 4.5 -6.234375 C 4.375 -6.253906 4.148438 -6.265625 3.828125 -6.265625 L 2.28125 -6.265625 L 2.28125 -4.34375 L 3.625 -4.34375 C 4.164062 -4.34375 4.539062 -4.375 4.75 -4.4375 Z M 4.75 -4.4375 "/></g></g><g style="fill:#ffffff;fill-opacity:1;"><g transform="translate(157.300882, 225.276514)"><path style="stroke:none" d="M 6.359375 -6.265625 L 2.28125 -6.265625 L 2.28125 -4.59375 L 6.078125 -4.59375 L 6.078125 -3.3125 L 2.28125 -3.3125 L 2.28125 -1.28125 L 6.5 -1.28125 L 6.5 0 L 0.765625 0 L 0.765625 -7.546875 L 6.359375 -7.546875 Z M 6.359375 -6.265625 "/></g></g><g style="fill:#ffffff;fill-opacity:1;"><g transform="translate(164.325917, 225.276514)"><path style="stroke:none" d="M 5.96875 -6.828125 C 6.707031 -6.171875 7.078125 -5.117188 7.078125 -3.671875 C 7.078125 -2.460938 6.75 -1.515625 6.09375 -0.828125 C 5.582031 -0.273438 4.796875 0 3.734375 0 L 0.765625 0 L 0.765625 -7.546875 L 3.703125 -7.546875 C 4.234375 -7.546875 4.671875 -7.488281 5.015625 -7.375 C 5.367188 -7.269531 5.6875 -7.085938 5.96875 -6.828125 Z M 5.5 -3.765625 C 5.5 -4.484375 5.410156 -5.019531 5.234375 -5.375 C 5.066406 -5.738281 4.820312 -5.976562 4.5 -6.09375 C 4.175781 -6.207031 3.738281 -6.265625 3.1875 -6.265625 L 2.28125 -6.265625 L 2.28125 -1.28125 L 3.53125 -1.28125 C 4.007812 -1.28125 4.382812 -1.335938 4.65625 -1.453125 C 4.9375 -1.578125 5.144531 -1.816406 5.28125 -2.171875 C 5.425781 -2.535156 5.5 -3.066406 5.5 -3.765625 Z M 5.5 -3.765625 "/></g></g><g style="fill:#ffffff;fill-opacity:1;"><g transform="translate(171.930227, 225.276514)"><path style="stroke:none" d=""/></g></g><g style="fill:#ffffff;fill-opacity:1;"><g transform="translate(174.858207, 225.276514)"><path style="stroke:none" d="M 5.46875 -7.375 C 5.820312 -7.25 6.117188 -7.03125 6.359375 -6.71875 C 6.597656 -6.40625 6.71875 -6.046875 6.71875 -5.640625 C 6.71875 -5.234375 6.601562 -4.882812 6.375 -4.59375 C 6.15625 -4.3125 5.914062 -4.117188 5.65625 -4.015625 C 6.15625 -3.867188 6.519531 -3.625 6.75 -3.28125 C 6.976562 -2.945312 7.09375 -2.582031 7.09375 -2.1875 C 7.09375 -1.75 6.960938 -1.332031 6.703125 -0.9375 C 6.453125 -0.550781 6.113281 -0.289062 5.6875 -0.15625 C 5.5 -0.09375 5.257812 -0.0507812 4.96875 -0.03125 C 4.675781 -0.0078125 4.328125 0 3.921875 0 L 0.765625 0 L 0.765625 -7.546875 L 3.921875 -7.546875 C 4.285156 -7.546875 4.585938 -7.535156 4.828125 -7.515625 C 5.066406 -7.492188 5.28125 -7.445312 5.46875 -7.375 Z M 5.234375 -5.40625 C 5.234375 -5.601562 5.1875 -5.765625 5.09375 -5.890625 C 5 -6.023438 4.878906 -6.125 4.734375 -6.1875 C 4.597656 -6.238281 4.335938 -6.265625 3.953125 -6.265625 L 2.28125 -6.265625 L 2.28125 -4.53125 L 3.984375 -4.53125 C 4.816406 -4.53125 5.234375 -4.820312 5.234375 -5.40625 Z M 4.71875 -1.3125 C 4.945312 -1.351562 5.132812 -1.453125 5.28125 -1.609375 C 5.4375 -1.765625 5.515625 -1.972656 5.515625 -2.234375 C 5.515625 -2.523438 5.441406 -2.742188 5.296875 -2.890625 C 5.148438 -3.046875 4.953125 -3.144531 4.703125 -3.1875 C 4.453125 -3.238281 4.128906 -3.265625 3.734375 -3.265625 L 2.28125 -3.265625 L 2.28125 -1.28125 L 3.859375 -1.28125 C 4.222656 -1.28125 4.507812 -1.289062 4.71875 -1.3125 Z M 4.71875 -1.3125 "/></g></g><g style="fill:#ffffff;fill-opacity:1;"><g transform="translate(182.462516, 225.276514)"><path style="stroke:none" d="M 3.53125 -4.5625 L 5.28125 -7.546875 L 7.03125 -7.546875 L 4.265625 -3.15625 L 4.265625 0 L 2.75 0 L 2.75 -3.171875 L -0.015625 -7.546875 L 1.765625 -7.546875 Z M 3.53125 -4.5625 "/></g></g><g style="fill:#ffffff;fill-opacity:1;"><g transform="translate(189.487551, 225.276514)"><path style="stroke:none" d=""/></g></g><g style="fill:#ffffff;fill-opacity:1;"><g transform="translate(192.415531, 225.276514)"><path style="stroke:none" d="M 6.359375 -6.265625 L 2.28125 -6.265625 L 2.28125 -4.59375 L 6.078125 -4.59375 L 6.078125 -3.3125 L 2.28125 -3.3125 L 2.28125 -1.28125 L 6.5 -1.28125 L 6.5 0 L 0.765625 0 L 0.765625 -7.546875 L 6.359375 -7.546875 Z M 6.359375 -6.265625 "/></g></g><g style="fill:#ffffff;fill-opacity:1;"><g transform="translate(199.440566, 225.276514)"><path style="stroke:none" d="M 3.53125 -5.125 L 5.015625 -7.546875 L 6.78125 -7.546875 L 4.4375 -3.875 L 7.015625 0 L 5.1875 0 L 3.5 -2.59375 L 1.828125 0 L 0 0 L 2.578125 -3.9375 L 0.25 -7.546875 L 2.015625 -7.546875 Z M 3.53125 -5.125 "/></g></g><g style="fill:#ffffff;fill-opacity:1;"><g transform="translate(206.4656, 225.276514)"><path style="stroke:none" d="M 5.234375 -7.359375 C 5.609375 -7.203125 5.921875 -6.945312 6.171875 -6.59375 C 6.421875 -6.238281 6.546875 -5.78125 6.546875 -5.21875 C 6.546875 -4.675781 6.421875 -4.222656 6.171875 -3.859375 C 5.929688 -3.492188 5.625 -3.234375 5.25 -3.078125 C 4.875 -2.921875 4.269531 -2.84375 3.4375 -2.84375 L 2.28125 -2.84375 L 2.28125 0 L 0.765625 0 L 0.765625 -7.546875 L 3.390625 -7.546875 C 3.878906 -7.546875 4.265625 -7.53125 4.546875 -7.5 C 4.835938 -7.476562 5.066406 -7.429688 5.234375 -7.359375 Z M 4.96875 -5.203125 C 4.96875 -5.648438 4.75 -5.96875 4.3125 -6.15625 C 4.144531 -6.226562 3.800781 -6.265625 3.28125 -6.265625 L 2.28125 -6.265625 L 2.28125 -4.125 L 3.28125 -4.125 C 3.800781 -4.125 4.210938 -4.191406 4.515625 -4.328125 C 4.816406 -4.472656 4.96875 -4.765625 4.96875 -5.203125 Z M 4.96875 -5.203125 "/></g></g><g style="fill:#ffffff;fill-opacity:1;"><g transform="translate(213.490635, 225.276514)"><path style="stroke:none" d="M 6.359375 -6.265625 L 2.28125 -6.265625 L 2.28125 -4.59375 L 6.078125 -4.59375 L 6.078125 -3.3125 L 2.28125 -3.3125 L 2.28125 -1.28125 L 6.5 -1.28125 L 6.5 0 L 0.765625 0 L 0.765625 -7.546875 L 6.359375 -7.546875 Z M 6.359375 -6.265625 "/></g></g><g style="fill:#ffffff;fill-opacity:1;"><g transform="translate(220.51567, 225.276514)"><path style="stroke:none" d="M 5.828125 -7.296875 C 6.140625 -7.160156 6.398438 -6.925781 6.609375 -6.59375 C 6.816406 -6.257812 6.921875 -5.867188 6.921875 -5.421875 C 6.921875 -4.859375 6.75 -4.382812 6.40625 -4 C 6.0625 -3.625 5.570312 -3.394531 4.9375 -3.3125 C 5.207031 -3.125 5.414062 -2.96875 5.5625 -2.84375 C 5.707031 -2.726562 5.863281 -2.554688 6.03125 -2.328125 C 6.207031 -2.109375 6.421875 -1.796875 6.671875 -1.390625 L 7.546875 0 L 5.71875 0 L 4.5 -1.828125 C 4.226562 -2.234375 4.015625 -2.519531 3.859375 -2.6875 C 3.710938 -2.863281 3.550781 -2.984375 3.375 -3.046875 C 3.207031 -3.117188 2.972656 -3.15625 2.671875 -3.15625 L 2.28125 -3.15625 L 2.28125 0 L 0.765625 0 L 0.765625 -7.546875 L 4.0625 -7.546875 C 4.425781 -7.546875 4.75 -7.53125 5.03125 -7.5 C 5.320312 -7.46875 5.585938 -7.398438 5.828125 -7.296875 Z M 4.75 -4.4375 C 4.925781 -4.488281 5.070312 -4.59375 5.1875 -4.75 C 5.300781 -4.90625 5.359375 -5.097656 5.359375 -5.328125 C 5.359375 -5.722656 5.1875 -6 4.84375 -6.15625 C 4.75 -6.195312 4.632812 -6.222656 4.5 -6.234375 C 4.375 -6.253906 4.148438 -6.265625 3.828125 -6.265625 L 2.28125 -6.265625 L 2.28125 -4.34375 L 3.625 -4.34375 C 4.164062 -4.34375 4.539062 -4.375 4.75 -4.4375 Z M 4.75 -4.4375 "/></g></g><g style="fill:#ffffff;fill-opacity:1;"><g transform="translate(228.11998, 225.276514)"><path style="stroke:none" d="M 2.234375 0 L 0.71875 0 L 0.71875 -7.546875 L 2.234375 -7.546875 Z M 2.234375 0 "/></g></g><g style="fill:#ffffff;fill-opacity:1;"><g transform="translate(231.04796, 225.276514)"><path style="stroke:none" d="M 6.359375 -6.265625 L 2.28125 -6.265625 L 2.28125 -4.59375 L 6.078125 -4.59375 L 6.078125 -3.3125 L 2.28125 -3.3125 L 2.28125 -1.28125 L 6.5 -1.28125 L 6.5 0 L 0.765625 0 L 0.765625 -7.546875 L 6.359375 -7.546875 Z M 6.359375 -6.265625 "/></g></g><g style="fill:#ffffff;fill-opacity:1;"><g transform="translate(238.072994, 225.276514)"><path style="stroke:none" d="M 5.34375 -2.5 L 5.34375 -7.546875 L 6.75 -7.546875 L 6.75 0 L 5.21875 0 L 2.1875 -4.921875 L 2.1875 0 L 0.78125 0 L 0.78125 -7.546875 L 2.25 -7.546875 Z M 5.34375 -2.5 "/></g></g><g style="fill:#ffffff;fill-opacity:1;"><g transform="translate(245.677304, 225.276514)"><path style="stroke:none" d="M 4.015625 -7.671875 C 4.785156 -7.671875 5.4375 -7.484375 5.96875 -7.109375 C 6.5 -6.734375 6.851562 -6.179688 7.03125 -5.453125 L 5.53125 -5.09375 C 5.4375 -5.488281 5.25 -5.796875 4.96875 -6.015625 C 4.6875 -6.242188 4.34375 -6.359375 3.9375 -6.359375 C 3.34375 -6.359375 2.878906 -6.148438 2.546875 -5.734375 C 2.222656 -5.316406 2.0625 -4.679688 2.0625 -3.828125 C 2.0625 -3.035156 2.195312 -2.394531 2.46875 -1.90625 C 2.738281 -1.414062 3.222656 -1.171875 3.921875 -1.171875 C 4.359375 -1.171875 4.710938 -1.3125 4.984375 -1.59375 C 5.265625 -1.875 5.460938 -2.265625 5.578125 -2.765625 L 7.0625 -2.3125 C 6.851562 -1.488281 6.476562 -0.875 5.9375 -0.46875 C 5.394531 -0.0703125 4.722656 0.125 3.921875 0.125 C 3.242188 0.125 2.644531 -0.03125 2.125 -0.34375 C 1.601562 -0.664062 1.203125 -1.113281 0.921875 -1.6875 C 0.640625 -2.257812 0.5 -2.929688 0.5 -3.703125 C 0.5 -4.390625 0.617188 -5.035156 0.859375 -5.640625 C 1.097656 -6.242188 1.476562 -6.734375 2 -7.109375 C 2.53125 -7.484375 3.203125 -7.671875 4.015625 -7.671875 Z M 4.015625 -7.671875 "/></g></g><g style="fill:#ffffff;fill-opacity:1;"><g transform="translate(253.281614, 225.276514)"><path style="stroke:none" d="M 6.359375 -6.265625 L 2.28125 -6.265625 L 2.28125 -4.59375 L 6.078125 -4.59375 L 6.078125 -3.3125 L 2.28125 -3.3125 L 2.28125 -1.28125 L 6.5 -1.28125 L 6.5 0 L 0.765625 0 L 0.765625 -7.546875 L 6.359375 -7.546875 Z M 6.359375 -6.265625 "/></g></g><g style="fill:#ffffff;fill-opacity:1;"><g transform="translate(260.306649, 225.276514)"><path style="stroke:none" d="M 2.203125 0 L 0.765625 0 L 0.765625 -1.4375 L 2.203125 -1.4375 Z M 2.203125 0 "/></g></g><g style="fill:#ffffff;fill-opacity:1;"><g transform="translate(263.234628, 225.276514)"><path style="stroke:none" d=""/></g></g><g style="fill:#ffffff;fill-opacity:1;"><g transform="translate(266.162608, 225.276514)"><path style="stroke:none" d="M 5.46875 -7.375 C 5.820312 -7.25 6.117188 -7.03125 6.359375 -6.71875 C 6.597656 -6.40625 6.71875 -6.046875 6.71875 -5.640625 C 6.71875 -5.234375 6.601562 -4.882812 6.375 -4.59375 C 6.15625 -4.3125 5.914062 -4.117188 5.65625 -4.015625 C 6.15625 -3.867188 6.519531 -3.625 6.75 -3.28125 C 6.976562 -2.945312 7.09375 -2.582031 7.09375 -2.1875 C 7.09375 -1.75 6.960938 -1.332031 6.703125 -0.9375 C 6.453125 -0.550781 6.113281 -0.289062 5.6875 -0.15625 C 5.5 -0.09375 5.257812 -0.0507812 4.96875 -0.03125 C 4.675781 -0.0078125 4.328125 0 3.921875 0 L 0.765625 0 L 0.765625 -7.546875 L 3.921875 -7.546875 C 4.285156 -7.546875 4.585938 -7.535156 4.828125 -7.515625 C 5.066406 -7.492188 5.28125 -7.445312 5.46875 -7.375 Z M 5.234375 -5.40625 C 5.234375 -5.601562 5.1875 -5.765625 5.09375 -5.890625 C 5 -6.023438 4.878906 -6.125 4.734375 -6.1875 C 4.597656 -6.238281 4.335938 -6.265625 3.953125 -6.265625 L 2.28125 -6.265625 L 2.28125 -4.53125 L 3.984375 -4.53125 C 4.816406 -4.53125 5.234375 -4.820312 5.234375 -5.40625 Z M 4.71875 -1.3125 C 4.945312 -1.351562 5.132812 -1.453125 5.28125 -1.609375 C 5.4375 -1.765625 5.515625 -1.972656 5.515625 -2.234375 C 5.515625 -2.523438 5.441406 -2.742188 5.296875 -2.890625 C 5.148438 -3.046875 4.953125 -3.144531 4.703125 -3.1875 C 4.453125 -3.238281 4.128906 -3.265625 3.734375 -3.265625 L 2.28125 -3.265625 L 2.28125 -1.28125 L 3.859375 -1.28125 C 4.222656 -1.28125 4.507812 -1.289062 4.71875 -1.3125 Z M 4.71875 -1.3125 "/></g></g><g style="fill:#ffffff;fill-opacity:1;"><g transform="translate(273.493097, 225.276514)"><path style="stroke:none" d="M 2.28125 -3.15625 C 2.28125 -2.738281 2.296875 -2.4375 2.328125 -2.25 C 2.378906 -1.9375 2.523438 -1.675781 2.765625 -1.46875 C 3.003906 -1.269531 3.347656 -1.171875 3.796875 -1.171875 C 4.222656 -1.171875 4.539062 -1.25 4.75 -1.40625 C 4.957031 -1.5625 5.09375 -1.773438 5.15625 -2.046875 C 5.21875 -2.316406 5.25 -2.6875 5.25 -3.15625 L 5.25 -7.546875 L 6.765625 -7.546875 L 6.765625 -3.40625 C 6.765625 -2.78125 6.738281 -2.269531 6.6875 -1.875 C 6.476562 -0.539062 5.53125 0.125 3.84375 0.125 C 2.9375 0.125 2.257812 -0.0234375 1.8125 -0.328125 C 1.363281 -0.640625 1.078125 -1.03125 0.953125 -1.5 C 0.828125 -1.96875 0.765625 -2.5625 0.765625 -3.28125 L 0.765625 -7.546875 L 2.28125 -7.546875 Z M 2.28125 -3.15625 "/></g></g><g style="fill:#ffffff;fill-opacity:1;"><g transform="translate(281.097406, 225.276514)"><path style="stroke:none" d="M 2.234375 0 L 0.71875 0 L 0.71875 -7.546875 L 2.234375 -7.546875 Z M 2.234375 0 "/></g></g><g style="fill:#ffffff;fill-opacity:1;"><g transform="translate(284.025359, 225.276514)"><path style="stroke:none" d="M 2.328125 -1.28125 L 6.125 -1.28125 L 6.125 0 L 0.8125 0 L 0.8125 -7.546875 L 2.328125 -7.546875 Z M 2.328125 -1.28125 "/></g></g><g style="fill:#ffffff;fill-opacity:1;"><g transform="translate(289.565365, 225.276514)"><path style="stroke:none" d="M 6.203125 -6.265625 L 3.96875 -6.265625 L 3.96875 0 L 2.453125 0 L 2.453125 -6.265625 L 0.21875 -6.265625 L 0.21875 -7.546875 L 6.203125 -7.546875 Z M 6.203125 -6.265625 "/></g></g><g style="fill:#ffffff;fill-opacity:1;"><g transform="translate(298.928551, 225.276514)"><path style="stroke:none" d="M 2.734375 -2.359375 L 4.109375 -7.546875 L 5.921875 -7.546875 L 7.25 -2.28125 L 8.390625 -7.546875 L 9.9375 -7.546875 L 8.09375 0 L 6.484375 0 L 4.96875 -5.640625 L 3.484375 0 L 1.828125 0 L 0.03125 -7.546875 L 1.59375 -7.546875 Z M 2.734375 -2.359375 "/></g></g><g style="fill:#ffffff;fill-opacity:1;"><g transform="translate(308.871039, 225.276514)"><path style="stroke:none" d="M 2.234375 0 L 0.71875 0 L 0.71875 -7.546875 L 2.234375 -7.546875 Z M 2.234375 0 "/></g></g><g style="fill:#ffffff;fill-opacity:1;"><g transform="translate(311.798992, 225.276514)"><path style="stroke:none" d="M 6.203125 -6.265625 L 3.96875 -6.265625 L 3.96875 0 L 2.453125 0 L 2.453125 -6.265625 L 0.21875 -6.265625 L 0.21875 -7.546875 L 6.203125 -7.546875 Z M 6.203125 -6.265625 "/></g></g><g style="fill:#ffffff;fill-opacity:1;"><g transform="translate(318.234226, 225.276514)"><path style="stroke:none" d="M 2.28125 -4.578125 L 5.265625 -4.578125 L 5.265625 -7.546875 L 6.78125 -7.546875 L 6.78125 0 L 5.265625 0 L 5.265625 -3.296875 L 2.28125 -3.296875 L 2.28125 0 L 0.765625 0 L 0.765625 -7.546875 L 2.28125 -7.546875 Z M 2.28125 -4.578125 "/></g></g><g style="fill:#ffffff;fill-opacity:1;"><g transform="translate(325.838536, 225.276514)"><path style="stroke:none" d=""/></g></g><g style="fill:#ffffff;fill-opacity:1;"><g transform="translate(328.766515, 225.276514)"><path style="stroke:none" d="M 2.734375 -2.359375 L 4.109375 -7.546875 L 5.921875 -7.546875 L 7.25 -2.28125 L 8.390625 -7.546875 L 9.9375 -7.546875 L 8.09375 0 L 6.484375 0 L 4.96875 -5.640625 L 3.484375 0 L 1.828125 0 L 0.03125 -7.546875 L 1.59375 -7.546875 Z M 2.734375 -2.359375 "/></g></g><g style="fill:#ffffff;fill-opacity:1;"><g transform="translate(338.708977, 225.276514)"><path style="stroke:none" d="M 2.234375 0 L 0.71875 0 L 0.71875 -7.546875 L 2.234375 -7.546875 Z M 2.234375 0 "/></g></g><g style="fill:#ffffff;fill-opacity:1;"><g transform="translate(341.636983, 225.276514)"><path style="stroke:none" d="M 3.40625 -7.671875 C 4.238281 -7.671875 4.921875 -7.484375 5.453125 -7.109375 C 5.984375 -6.734375 6.257812 -6.15625 6.28125 -5.375 L 4.765625 -5.3125 C 4.710938 -5.664062 4.582031 -5.9375 4.375 -6.125 C 4.164062 -6.3125 3.832031 -6.40625 3.375 -6.40625 C 3.0625 -6.40625 2.769531 -6.347656 2.5 -6.234375 C 2.238281 -6.128906 2.109375 -5.941406 2.109375 -5.671875 C 2.109375 -5.429688 2.226562 -5.242188 2.46875 -5.109375 C 2.707031 -4.972656 3.128906 -4.835938 3.734375 -4.703125 C 4.304688 -4.566406 4.773438 -4.421875 5.140625 -4.265625 C 5.515625 -4.117188 5.832031 -3.878906 6.09375 -3.546875 C 6.363281 -3.210938 6.5 -2.757812 6.5 -2.1875 C 6.5 -1.90625 6.429688 -1.601562 6.296875 -1.28125 C 6.160156 -0.957031 5.941406 -0.675781 5.640625 -0.4375 C 5.421875 -0.257812 5.125 -0.117188 4.75 -0.015625 C 4.382812 0.078125 3.957031 0.125 3.46875 0.125 C 2.53125 0.125 1.804688 -0.0820312 1.296875 -0.5 C 0.796875 -0.925781 0.488281 -1.578125 0.375 -2.453125 L 1.859375 -2.59375 C 2.015625 -1.625 2.5625 -1.140625 3.5 -1.140625 C 3.988281 -1.140625 4.359375 -1.242188 4.609375 -1.453125 C 4.859375 -1.660156 4.984375 -1.90625 4.984375 -2.1875 C 4.984375 -2.394531 4.921875 -2.554688 4.796875 -2.671875 C 4.671875 -2.796875 4.476562 -2.898438 4.21875 -2.984375 C 3.957031 -3.078125 3.546875 -3.1875 2.984375 -3.3125 C 2.273438 -3.46875 1.707031 -3.726562 1.28125 -4.09375 C 0.863281 -4.457031 0.65625 -4.945312 0.65625 -5.5625 C 0.65625 -5.894531 0.738281 -6.21875 0.90625 -6.53125 C 1.070312 -6.851562 1.359375 -7.125 1.765625 -7.34375 C 2.179688 -7.5625 2.726562 -7.671875 3.40625 -7.671875 Z M 3.40625 -7.671875 "/></g></g><g style="fill:#ffffff;fill-opacity:1;"><g transform="translate(348.661991, 225.276514)"><path style="stroke:none" d="M 5.96875 -6.828125 C 6.707031 -6.171875 7.078125 -5.117188 7.078125 -3.671875 C 7.078125 -2.460938 6.75 -1.515625 6.09375 -0.828125 C 5.582031 -0.273438 4.796875 0 3.734375 0 L 0.765625 0 L 0.765625 -7.546875 L 3.703125 -7.546875 C 4.234375 -7.546875 4.671875 -7.488281 5.015625 -7.375 C 5.367188 -7.269531 5.6875 -7.085938 5.96875 -6.828125 Z M 5.5 -3.765625 C 5.5 -4.484375 5.410156 -5.019531 5.234375 -5.375 C 5.066406 -5.738281 4.820312 -5.976562 4.5 -6.09375 C 4.175781 -6.207031 3.738281 -6.265625 3.1875 -6.265625 L 2.28125 -6.265625 L 2.28125 -1.28125 L 3.53125 -1.28125 C 4.007812 -1.28125 4.382812 -1.335938 4.65625 -1.453125 C 4.9375 -1.578125 5.144531 -1.816406 5.28125 -2.171875 C 5.425781 -2.535156 5.5 -3.066406 5.5 -3.765625 Z M 5.5 -3.765625 "/></g></g><g style="fill:#ffffff;fill-opacity:1;"><g transform="translate(356.266301, 225.276514)"><path style="stroke:none" d="M 4.09375 -7.671875 C 4.882812 -7.671875 5.550781 -7.5 6.09375 -7.15625 C 6.644531 -6.820312 7.054688 -6.359375 7.328125 -5.765625 C 7.609375 -5.179688 7.75 -4.515625 7.75 -3.765625 C 7.75 -2.960938 7.601562 -2.269531 7.3125 -1.6875 C 7.019531 -1.101562 6.597656 -0.65625 6.046875 -0.34375 C 5.503906 -0.03125 4.863281 0.125 4.125 0.125 C 3.34375 0.125 2.675781 -0.0351562 2.125 -0.359375 C 1.570312 -0.679688 1.15625 -1.128906 0.875 -1.703125 C 0.59375 -2.285156 0.453125 -2.960938 0.453125 -3.734375 C 0.453125 -4.523438 0.59375 -5.21875 0.875 -5.8125 C 1.15625 -6.40625 1.566406 -6.863281 2.109375 -7.1875 C 2.648438 -7.507812 3.3125 -7.671875 4.09375 -7.671875 Z M 2.015625 -3.765625 C 2.015625 -3.179688 2.109375 -2.695312 2.296875 -2.3125 C 2.492188 -1.925781 2.75 -1.640625 3.0625 -1.453125 C 3.375 -1.265625 3.722656 -1.171875 4.109375 -1.171875 C 4.460938 -1.171875 4.789062 -1.25 5.09375 -1.40625 C 5.40625 -1.570312 5.664062 -1.847656 5.875 -2.234375 C 6.082031 -2.628906 6.1875 -3.148438 6.1875 -3.796875 C 6.1875 -4.546875 6.019531 -5.160156 5.6875 -5.640625 C 5.351562 -6.117188 4.820312 -6.359375 4.09375 -6.359375 C 3.375 -6.359375 2.847656 -6.113281 2.515625 -5.625 C 2.179688 -5.144531 2.015625 -4.523438 2.015625 -3.765625 Z M 2.015625 -3.765625 "/></g></g><g style="fill:#ffffff;fill-opacity:1;"><g transform="translate(364.460412, 225.276514)"><path style="stroke:none" d="M 4.40625 -2.40625 L 5.734375 -7.546875 L 8.03125 -7.546875 L 8.03125 0 L 6.609375 0 L 6.609375 -5.9375 L 5.125 0 L 3.671875 0 L 2.15625 -5.921875 L 2.15625 0 L 0.75 0 L 0.75 -7.546875 L 3.015625 -7.546875 Z M 4.40625 -2.40625 "/></g></g></g></svg>